# xmcd CD database file
#
# Track frame offsets:
#	182
#	25182
#	52127
#	67845
#	91965
#	116897
#	139687
#	155497
#	183405
#	211572
#	242487
#	276000
#	296830
#
# Disc length: 4336 seconds
#
# Revision: 0
# Processed by: cddbd v1.5.2PL0 Copyright (c) Steve Scherf et al.
# Submitted via: CDex 1.51
#
DISCID=b810ee0d
DTITLE=Blue Wonder Jazz Band Dresden - '94
DYEAR=1994
DGENRE=Jazz
TTITLE0=High Society Rag
TTITLE1=From Monday On
TTITLE2=Ory's Creole Trombone
TTITLE3=West End Blues
TTITLE4=The Chant
TTITLE5=Mississippi Mud
TTITLE6=The Pearls
TTITLE7=Changes
TTITLE8=The Creeper
TTITLE9=Creole Love Call
TTITLE10=Panama Rag
TTITLE11=Ballin' The Jack
TTITLE12=Rockin' In Rhythm
EXTD=YEAR: 1994
EXTT0=
EXTT1=
EXTT2=
EXTT3=
EXTT4=
EXTT5=
EXTT6=
EXTT7=
EXTT8=
EXTT9=
EXTT10=
EXTT11=
EXTT12=
PLAYORDER=
